<svg width="2253" height="503" viewBox="0 0 2253 503" fill="none" xmlns="http://www.w3.org/2000/svg">
<path d="M1963.14 14.1467C1975.91 15.3289 2002.92 14.5644 2016.56 14.5506L2110.27 14.4125L2110.21 94.1785C2123.36 94.377 2136.51 94.3971 2149.66 94.2387L2149.68 204.376H2110.25V380.25C2110.25 408.795 2109.44 441.825 2110.33 469.837L2108.91 472.498C2101.22 474.201 1960.08 472.907 1958.34 472.044C1961.4 461.081 1959.33 392.627 1959.31 377.287C1959.28 347.624 1957.95 18.9397 1960.16 15.2916C1960.7 14.3965 1962.15 14.3742 1963.14 14.1467Z" fill="#222223"/>
<path d="M1781.43 14.3973C1798.84 15.0249 1818.94 14.5074 1836.69 14.5103L1932.19 14.3491L1932.16 337.322L1932.25 428.846C1932.26 437.952 1932.86 465.479 1931.75 473.015L1780.34 473.027C1779.37 438.696 1779.86 402.944 1779.86 368.511L1779.87 196.71L1779.88 76.6467C1779.88 57.3376 1779.76 37.6909 1779.91 18.3697C1779.93 15.6648 1779.84 15.8098 1781.43 14.3973Z" fill="#222223"/>
<path d="M2176.98 375.139C2197.05 370.885 2206.8 372.392 2224.91 383.323C2226.53 384.306 2231.86 388.693 2232.73 389.134C2245.16 404.935 2249.05 414.572 2247.22 435.445C2246.49 443.798 2241.2 456.036 2235.14 461.784C2220.93 478.224 2206.79 479.591 2186.66 479.791C2165.19 478.667 2147.8 464.781 2140.79 444.668C2136.02 430.885 2136.96 415.763 2143.41 402.679C2150.67 387.732 2161.91 380.339 2176.98 375.139Z" fill="#222223"/>
<path d="M876.707 14.5166L972.505 14.5027C989.849 14.4977 1007.42 14.1853 1024.75 14.8037C1026.96 14.8826 1026.85 15.5079 1028.37 17.1632C1028.2 56.3153 1028.76 96.2992 1028.2 135.327C1041.66 116.894 1047.21 115.773 1064.28 103.918C1069.74 101.039 1076.59 98.1495 1082.3 95.5151C1084.78 95.0734 1086.41 94.3592 1088.72 93.4486C1109.06 87.171 1119.58 86.4939 1140.14 86.5787C1154.76 86.6837 1167.48 88.5465 1181.59 92.3555C1183.5 92.8721 1188.34 94.6338 1189.9 94.686C1201.71 99.0323 1214.46 104.763 1225.18 111.511C1243.44 125.06 1256.1 135.642 1270.07 154.152C1273.71 158.978 1279.16 170.157 1282.28 173.953C1285.59 181.378 1289.78 189.323 1292.64 196.917C1328.61 292.433 1303.46 427.219 1199.58 468.359C1146.6 488.685 1078.83 484.273 1036.83 442.789C1034.03 440.023 1031.99 435.642 1029.2 434.473C1026.02 438.642 1030.95 466.476 1026.44 472.736C1010.78 473.614 989.547 473.04 973.417 473.037L876.676 473.001C877.271 422.295 876.696 370.387 876.698 319.601L876.707 14.5166ZM1037.08 288.097C1037.49 293.252 1038.63 298.322 1040.45 303.159C1050.64 330.109 1079.94 344.592 1107.54 336.327C1135.14 328.062 1151.65 299.863 1145.35 271.748C1139.05 243.634 1112.09 225.175 1083.6 229.477C1055.11 233.778 1034.8 259.376 1037.08 288.097Z" fill="#222223"/>
<path d="M1424.14 101.347C1470.46 76.3537 1546.01 82.4921 1585.41 117.504C1588.79 120.513 1599.19 131.533 1601.63 132.483C1602.29 129.422 1601.84 99.6991 1601.84 94.3425L1753.5 94.3019L1753.47 473.008L1601.88 473.006L1601.9 432.889C1575.87 461.735 1546.57 477.613 1506.89 479.642C1504.14 479.779 1501.39 479.891 1498.64 479.978C1495.84 479.32 1481.19 479.698 1477.08 479.411C1459.19 478.16 1443.5 473.692 1427.21 466.874C1383.83 448.714 1354.21 413.598 1337.13 370.183C1316.73 318.318 1316.91 243.256 1339.45 192.146C1339.59 191.275 1341.81 185.908 1342.27 184.75C1344.85 181.146 1350.81 169.094 1353.02 164.614C1354.67 163.203 1364.42 147.901 1368.93 143.357C1370.81 139.632 1387.94 123.916 1392.25 121.01C1393.58 119.524 1399.27 115.293 1401.14 113.839C1408.51 109.467 1416.36 104.892 1424.14 101.347ZM1545.42 338.134C1575.5 334.171 1596.65 306.548 1592.63 276.477C1588.62 246.405 1560.95 225.304 1530.89 229.377C1500.9 233.44 1479.87 261.014 1483.88 291.008C1487.88 321.002 1515.42 342.087 1545.42 338.134Z" fill="#222223"/>
<path d="M604.984 89.7782C609.536 89.6582 618.253 87.7848 623.598 87.4742C639.535 86.5482 664.712 85.267 680.083 88.1299C700.579 90.4012 720.666 95.4789 739.779 103.221C745.337 105.977 767.647 115.927 770.515 119.747L775.616 121.887C786.084 131.285 797.673 139.198 807.091 149.884C808.394 151.362 812.453 156.227 813.674 157.058C818.898 163.739 834.637 183.955 835.895 191.214C841.923 199.315 849.018 221.764 852.274 232.139C853.101 238.67 855.147 248.86 856.995 255.18C861.045 314.793 853.708 364.563 812.934 411.794C777.845 452.439 726.575 474.809 673.58 479.071C666.686 479.59 641.204 479.126 637.384 479.911C568.777 475.059 524.213 455.837 478.867 403.77C448.947 359.663 439.458 330.394 439.744 276.221C439.275 258.465 447.339 226.591 453.582 210.154C459.242 196.659 466.502 182.289 474.879 170.285L476.436 167.814C486.99 154.527 494.537 146.231 507.225 134.774C509.558 132.389 514.012 129.374 516.852 127.321C532.926 113.26 563.038 101.037 583.272 94.7652C589.656 93.8258 597.706 91.0904 604.984 89.7782ZM655.485 336.806C685.043 333.229 706.025 306.252 702.215 276.722C698.405 247.193 671.263 226.425 641.765 230.467C612.593 234.464 592.104 261.24 595.872 290.443C599.64 319.645 626.254 340.344 655.485 336.806Z" fill="#222223"/>
<path d="M141.566 98.2578C144.94 96.1928 153.607 94.1458 157.709 93.1074C193.279 84.103 233.327 84.6886 269.321 91.3091C349.136 112.823 404.573 158.679 421.922 243.389C423.355 250.385 424.352 259.277 426.107 265.959C419.731 270.03 318.328 265.975 302.374 267.417C298.678 267.75 272.047 267.536 267.35 267.032L267.101 266.318C261.799 251.903 252.218 240.642 238.145 234.093C225.918 228.297 211.867 227.683 199.18 232.389C185.801 237.179 174.923 247.168 169.014 260.091C162.645 273.991 161.604 288.724 167.025 303.136C172.141 316.558 182.374 327.402 195.477 333.288C208.064 338.88 222.366 339.195 235.187 334.161C249.363 328.661 260.119 317.621 266.13 303.748C266.654 302.541 267.126 301.312 267.545 300.066L268.053 298.88C284.102 298.862 420.853 297.903 424.391 300.073C427.842 310.178 417.877 343.897 414.019 354.763C392.028 416.711 337.637 459.693 274.335 473.999C272.373 474.442 269.699 474.722 267.903 475.269L263.764 476.419C260.647 476.191 245.204 478.544 240.936 478.986C106.6 492.876 -11.9442 397.957 10.005 252.203C9.5078 247.346 15.3785 227.526 16.948 222.021C28.2548 182.363 64.5136 135.119 101.581 115.967C111.572 109.716 120.999 106.526 131.184 100.946C132.186 100.937 138.113 98.7596 141.566 98.2578Z" fill="#222223"/>
</svg>
