<svg width="750" height="450" viewBox="0 0 750 450" fill="none" xmlns="http://www.w3.org/2000/svg">
<path d="M0 180.85H750V450H0V180.85Z" fill="#292929"/>
<path d="M375 180.85C375 280.73 291.053 361.699 187.5 361.699C83.9466 361.699 0 280.73 0 180.85C0 80.9692 83.9466 0 187.5 0C291.053 0 375 80.9692 375 180.85Z" fill="#292929"/>
<path d="M750 180.85C750 280.73 666.053 361.699 562.5 361.699C458.947 361.699 375 280.73 375 180.85C375 80.9692 458.947 0 562.5 0C666.053 0 750 80.9692 750 180.85Z" fill="#292929"/>
</svg>
